<svg width="200" height="200" viewBox="0 0 200 200" fill="none" xmlns="http://www.w3.org/2000/svg">
<rect width="19.4396" height="69.4218" transform="matrix(0.707117 -0.707096 0.707117 0.707096 26.3738 40.1158)" fill="#1D2CF3"/>
<rect width="19.4396" height="67.3477" transform="matrix(0.707117 -0.707096 0.707117 0.707096 0.67627 65.8153)" fill="#1D2CF3"/>
<rect width="19.4396" height="67.3477" transform="matrix(0.707117 -0.707096 0.707117 0.707096 138.631 100.979)" fill="#1D2CF3"/>
<rect width="67.8178" height="19.3913" transform="matrix(0.707117 -0.707096 0.707117 0.707096 138.235 100.023)" fill="#1D2CF3"/>
<rect width="67.8178" height="19.3913" transform="matrix(0.707117 -0.707096 0.707117 0.707096 0 134.511)" fill="#1D2CF3"/>
<rect width="19.5793" height="68.1728" transform="matrix(0.707117 -0.707096 0.707117 0.707096 86.5601 151.795)" fill="#1D2CF3"/>
<rect width="19.5793" height="69.5809" transform="matrix(0.707117 -0.707096 0.707117 0.707096 110.585 124.427)" fill="#1D2CF3"/>
<rect width="69.4128" height="19.2612" transform="matrix(0.707117 -0.707096 0.707117 0.707096 110.832 75.4546)" fill="#1D2CF3"/>
<rect width="19.5793" height="68.1728" transform="matrix(0.707117 -0.707096 0.707117 0.707096 51.9724 13.8445)" fill="#1D2CF3"/>
<rect width="68.0848" height="19.6244" transform="matrix(0.707117 -0.707096 0.707117 0.707096 86.8228 48.1425)" fill="#1D2CF3"/>
<rect width="68.0848" height="19.6244" transform="matrix(0.707117 -0.707096 0.707117 0.707096 52.0713 186.093)" fill="#1D2CF3"/>
<rect width="69.5796" height="19.6244" transform="matrix(0.707117 -0.707096 0.707117 0.707096 26.3738 159.72)" fill="#1D2CF3"/>
<rect x="69.6536" y="124.426" width="48.6885" height="19.6112" transform="rotate(-90 69.6536 124.426)" fill="#1D2CF3"/>
<rect x="110.905" y="124.426" width="48.6885" height="19.6112" transform="rotate(-90 110.905 124.426)" fill="#1D2CF3"/>
</svg>
